G04*
G04 #@! TF.GenerationSoftware,Altium Limited,Altium Designer,24.4.1 (13)*
G04*
G04 Layer_Color=65535*
%FSLAX44Y44*%
%MOMM*%
G71*
G04*
G04 #@! TF.SameCoordinates,D33A3FA2-88C1-4BC0-A94D-04A4EBB6AA15*
G04*
G04*
G04 #@! TF.FilePolarity,Positive*
G04*
G01*
G75*
%ADD10C,0.2540*%
%ADD11C,0.1000*%
%ADD12C,0.3048*%
%ADD13C,0.2000*%
D10*
X707503Y702700D02*
G03*
X707503Y702700I-37503J0D01*
G01*
X949840Y579840D02*
Y600160D01*
Y579840D02*
X970160D01*
Y600160D01*
X949840D02*
X970160D01*
X889840Y579840D02*
Y600160D01*
Y579840D02*
X910160D01*
Y600160D01*
X889840D02*
X910160D01*
X339840Y409840D02*
Y430160D01*
Y409840D02*
X360160D01*
Y430160D01*
X339840D02*
X360160D01*
X959840Y519840D02*
Y540160D01*
Y519840D02*
X980160D01*
Y540160D01*
X959840D02*
X980160D01*
X39840Y289840D02*
Y310160D01*
Y289840D02*
X60160D01*
Y310160D01*
X39840D02*
X60160D01*
X414600Y575400D02*
X465400D01*
X414600Y473800D02*
Y575400D01*
Y473800D02*
X465400D01*
Y575400D01*
X49840Y109840D02*
Y130160D01*
Y109840D02*
X70160D01*
Y130160D01*
X49840D02*
X70160D01*
X516980Y29840D02*
X608420D01*
X516980D02*
Y47620D01*
Y50160D01*
X608420D01*
Y29840D02*
Y50160D01*
X39840Y499840D02*
Y520160D01*
Y499840D02*
X60160D01*
Y520160D01*
X39840D02*
X60160D01*
X39840Y569840D02*
Y590160D01*
Y569840D02*
X60160D01*
Y590160D01*
X39840D02*
X60160D01*
X732540Y292310D02*
Y277075D01*
X740157D01*
X742697Y279614D01*
Y289771D01*
X740157Y292310D01*
X732540D01*
X755393Y277075D02*
X750314D01*
X747775Y279614D01*
Y284692D01*
X750314Y287232D01*
X755393D01*
X757932Y284692D01*
Y282153D01*
X747775D01*
X763010Y277075D02*
X770628D01*
X773167Y279614D01*
X770628Y282153D01*
X765549D01*
X763010Y284692D01*
X765549Y287232D01*
X773167D01*
X778245Y277075D02*
X783324D01*
X780784D01*
Y287232D01*
X778245D01*
X796019Y271996D02*
X798559D01*
X801098Y274536D01*
Y287232D01*
X793480D01*
X790941Y284692D01*
Y279614D01*
X793480Y277075D01*
X801098D01*
X806176D02*
Y287232D01*
X813794D01*
X816333Y284692D01*
Y277075D01*
X846803D02*
X844264Y279614D01*
X841725Y277075D01*
X839185D01*
X836646Y279614D01*
Y282153D01*
X839185Y284692D01*
X836646Y287232D01*
Y289771D01*
X839185Y292310D01*
X841725D01*
X844264Y289771D01*
Y287232D01*
X841725Y284692D01*
X844264Y282153D01*
Y279614D01*
X846803Y284692D02*
X844264Y282153D01*
X839185Y284692D02*
X841725D01*
X867116Y292310D02*
Y277075D01*
X874734D01*
X877273Y279614D01*
Y289771D01*
X874734Y292310D01*
X867116D01*
X889969Y277075D02*
X884891D01*
X882352Y279614D01*
Y284692D01*
X884891Y287232D01*
X889969D01*
X892508Y284692D01*
Y282153D01*
X882352D01*
X897587Y287232D02*
X902665Y277075D01*
X907743Y287232D01*
X920439Y277075D02*
X915361D01*
X912822Y279614D01*
Y284692D01*
X915361Y287232D01*
X920439D01*
X922978Y284692D01*
Y282153D01*
X912822D01*
X928057Y277075D02*
X933135D01*
X930596D01*
Y292310D01*
X928057D01*
X943292Y277075D02*
X948370D01*
X950909Y279614D01*
Y284692D01*
X948370Y287232D01*
X943292D01*
X940753Y284692D01*
Y279614D01*
X943292Y277075D01*
X955988Y271996D02*
Y287232D01*
X963605D01*
X966144Y284692D01*
Y279614D01*
X963605Y277075D01*
X955988D01*
X978840D02*
X973762D01*
X971223Y279614D01*
Y284692D01*
X973762Y287232D01*
X978840D01*
X981379Y284692D01*
Y282153D01*
X971223D01*
X996615Y292310D02*
Y277075D01*
X988997D01*
X986458Y279614D01*
Y284692D01*
X988997Y287232D01*
X996615D01*
X732540Y262853D02*
Y247618D01*
X740157D01*
X742697Y250158D01*
Y252697D01*
X740157Y255236D01*
X732540D01*
X740157D01*
X742697Y257775D01*
Y260314D01*
X740157Y262853D01*
X732540D01*
X747775Y257775D02*
Y250158D01*
X750314Y247618D01*
X757932D01*
Y245079D01*
X755393Y242540D01*
X752853D01*
X757932Y247618D02*
Y257775D01*
X778245D02*
X780784D01*
Y255236D01*
X778245D01*
Y257775D01*
Y250158D02*
X780784D01*
Y247618D01*
X778245D01*
Y250158D01*
X806176Y262853D02*
Y247618D01*
X811255Y252697D01*
X816333Y247618D01*
Y262853D01*
X823950Y257775D02*
X829029D01*
X831568Y255236D01*
Y247618D01*
X823950D01*
X821411Y250158D01*
X823950Y252697D01*
X831568D01*
X836646Y247618D02*
X841725D01*
X839185D01*
Y262853D01*
X836646D01*
X856960Y247618D02*
X851881D01*
X849342Y250158D01*
Y255236D01*
X851881Y257775D01*
X856960D01*
X859499Y255236D01*
Y252697D01*
X849342D01*
X872195Y247618D02*
X867116D01*
X864577Y250158D01*
Y255236D01*
X867116Y257775D01*
X872195D01*
X874734Y255236D01*
Y252697D01*
X864577D01*
X889969Y262853D02*
Y247618D01*
X882352D01*
X879812Y250158D01*
Y255236D01*
X882352Y257775D01*
X889969D01*
X910283Y262853D02*
Y250158D01*
X912822Y247618D01*
X917900D01*
X920439Y250158D01*
Y262853D01*
X925518Y247618D02*
Y257775D01*
X928057D01*
X930596Y255236D01*
Y247618D01*
Y255236D01*
X933135Y257775D01*
X935674Y255236D01*
Y247618D01*
X948370D02*
X943292D01*
X940753Y250158D01*
Y255236D01*
X943292Y257775D01*
X948370D01*
X950909Y255236D01*
Y252697D01*
X940753D01*
X955988Y257775D02*
Y247618D01*
Y252697D01*
X958527Y255236D01*
X961066Y257775D01*
X963605D01*
X742697Y229614D02*
X740157Y232153D01*
X735079D01*
X732540Y229614D01*
Y227075D01*
X735079Y224536D01*
X740157D01*
X742697Y221996D01*
Y219457D01*
X740157Y216918D01*
X735079D01*
X732540Y219457D01*
X750314Y229614D02*
Y227075D01*
X747775D01*
X752853D01*
X750314D01*
Y219457D01*
X752853Y216918D01*
X760471Y227075D02*
Y219457D01*
X763010Y216918D01*
X770628D01*
Y227075D01*
X785863Y232153D02*
Y216918D01*
X778245D01*
X775706Y219457D01*
Y224536D01*
X778245Y227075D01*
X785863D01*
X798559Y216918D02*
X793480D01*
X790941Y219457D01*
Y224536D01*
X793480Y227075D01*
X798559D01*
X801098Y224536D01*
Y221996D01*
X790941D01*
X806176Y216918D02*
Y227075D01*
X813794D01*
X816333Y224536D01*
Y216918D01*
X823950Y229614D02*
Y227075D01*
X821411D01*
X826490D01*
X823950D01*
Y219457D01*
X826490Y216918D01*
X849342Y232153D02*
X854420D01*
X851881D01*
Y216918D01*
X849342D01*
X854420D01*
X862038Y232153D02*
Y216918D01*
X869656D01*
X872195Y219457D01*
Y229614D01*
X869656Y232153D01*
X862038D01*
X892508Y227075D02*
X895047D01*
Y224536D01*
X892508D01*
Y227075D01*
Y219457D02*
X895047D01*
Y216918D01*
X892508D01*
Y219457D01*
X732540Y192540D02*
X740157D01*
X742697Y195079D01*
X740157Y197618D01*
X735079D01*
X732540Y200158D01*
X735079Y202697D01*
X742697D01*
X757932Y207775D02*
X747775D01*
Y200158D01*
X752853Y202697D01*
X755393D01*
X757932Y200158D01*
Y195079D01*
X755393Y192540D01*
X750314D01*
X747775Y195079D01*
X763010Y205236D02*
X765549Y207775D01*
X770628D01*
X773167Y205236D01*
Y202697D01*
X770628Y200158D01*
X768089D01*
X770628D01*
X773167Y197618D01*
Y195079D01*
X770628Y192540D01*
X765549D01*
X763010Y195079D01*
X778245Y205236D02*
X780784Y207775D01*
X785863D01*
X788402Y205236D01*
Y202697D01*
X785863Y200158D01*
X783324D01*
X785863D01*
X788402Y197618D01*
Y195079D01*
X785863Y192540D01*
X780784D01*
X778245Y195079D01*
X803637Y207775D02*
X798559Y205236D01*
X793480Y200158D01*
Y195079D01*
X796020Y192540D01*
X801098D01*
X803637Y195079D01*
Y197618D01*
X801098Y200158D01*
X793480D01*
X808715Y205236D02*
X811255Y207775D01*
X816333D01*
X818872Y205236D01*
Y202697D01*
X816333Y200158D01*
X813794D01*
X816333D01*
X818872Y197618D01*
Y195079D01*
X816333Y192540D01*
X811255D01*
X808715Y195079D01*
X823950Y192540D02*
X829029D01*
X826490D01*
Y207775D01*
X823950Y205236D01*
X836646Y207775D02*
X846803D01*
Y205236D01*
X836646Y195079D01*
Y192540D01*
X732540Y172153D02*
X737618D01*
X735079D01*
Y156918D01*
X732540D01*
X737618D01*
X745236D02*
Y167075D01*
X752853D01*
X755393Y164536D01*
Y156918D01*
X760471D02*
X768089D01*
X770628Y159457D01*
X768089Y161996D01*
X763010D01*
X760471Y164536D01*
X763010Y167075D01*
X770628D01*
X778245Y169614D02*
Y167075D01*
X775706D01*
X780784D01*
X778245D01*
Y159457D01*
X780784Y156918D01*
X788402Y167075D02*
Y156918D01*
Y161996D01*
X790941Y164536D01*
X793480Y167075D01*
X796019D01*
X803637D02*
Y159457D01*
X806176Y156918D01*
X813794D01*
Y167075D01*
X829029D02*
X821411D01*
X818872Y164536D01*
Y159457D01*
X821411Y156918D01*
X829029D01*
X836646Y169614D02*
Y167075D01*
X834107D01*
X839185D01*
X836646D01*
Y159457D01*
X839185Y156918D01*
X849342D02*
X854420D01*
X856960Y159457D01*
Y164536D01*
X854420Y167075D01*
X849342D01*
X846803Y164536D01*
Y159457D01*
X849342Y156918D01*
X862038Y167075D02*
Y156918D01*
Y161996D01*
X864577Y164536D01*
X867116Y167075D01*
X869656D01*
X892508D02*
X895047D01*
Y164536D01*
X892508D01*
Y167075D01*
Y159457D02*
X895047D01*
Y156918D01*
X892508D01*
Y159457D01*
X920439Y172153D02*
Y156918D01*
X928057D01*
X930596Y159457D01*
Y169614D01*
X928057Y172153D01*
X920439D01*
X935674Y167075D02*
Y156918D01*
Y161996D01*
X938213Y164536D01*
X940753Y167075D01*
X943292D01*
X950909Y156918D02*
Y159457D01*
X953448D01*
Y156918D01*
X950909D01*
X742697Y147775D02*
X732540D01*
Y140157D01*
X737618D01*
X732540D01*
Y132540D01*
X750314Y142697D02*
X755393D01*
X757932Y140157D01*
Y132540D01*
X750314D01*
X747775Y135079D01*
X750314Y137618D01*
X757932D01*
X763010Y132540D02*
X768089D01*
X765549D01*
Y142697D01*
X763010D01*
X775706Y132540D02*
X783324D01*
X785863Y135079D01*
X783324Y137618D01*
X778245D01*
X775706Y140157D01*
X778245Y142697D01*
X785863D01*
X793480D02*
X798559D01*
X801098Y140157D01*
Y132540D01*
X793480D01*
X790941Y135079D01*
X793480Y137618D01*
X801098D01*
X806176Y132540D02*
X811255D01*
X808715D01*
Y147775D01*
X806176D01*
X834107Y132540D02*
Y147775D01*
X839185Y142697D01*
X844264Y147775D01*
Y132540D01*
X851881D02*
X856960D01*
X859499Y135079D01*
Y140157D01*
X856960Y142697D01*
X851881D01*
X849342Y140157D01*
Y135079D01*
X851881Y132540D01*
X864577Y147775D02*
Y132540D01*
Y140157D01*
X867116Y142697D01*
X872195D01*
X874734Y140157D01*
Y132540D01*
X889969Y147775D02*
Y132540D01*
X882352D01*
X879812Y135079D01*
Y140157D01*
X882352Y142697D01*
X889969D01*
X895047Y140157D02*
X905204D01*
X910283Y147775D02*
Y145236D01*
X915361Y140157D01*
X920439Y145236D01*
Y147775D01*
X915361Y140157D02*
Y132540D01*
X928057Y142697D02*
X933135D01*
X935674Y140157D01*
Y132540D01*
X928057D01*
X925518Y135079D01*
X928057Y137618D01*
X935674D01*
X940753Y132540D02*
X948370D01*
X950909Y135079D01*
X948370Y137618D01*
X943292D01*
X940753Y140157D01*
X943292Y142697D01*
X950909D01*
X955988Y132540D02*
X961066D01*
X958527D01*
Y142697D01*
X955988D01*
X968684Y132540D02*
Y142697D01*
X976301D01*
X978840Y140157D01*
Y132540D01*
X732540Y312540D02*
Y327775D01*
X740157D01*
X742697Y325236D01*
Y320158D01*
X740157Y317618D01*
X732540D01*
X747775Y327775D02*
X752853D01*
X750314D01*
Y312540D01*
X747775D01*
X752853D01*
X760471Y327775D02*
Y312540D01*
X768089D01*
X770628Y315079D01*
Y325236D01*
X768089Y327775D01*
X760471D01*
X801098Y325236D02*
X798559Y327775D01*
X793480D01*
X790941Y325236D01*
Y315079D01*
X793480Y312540D01*
X798559D01*
X801098Y315079D01*
X808715Y312540D02*
X813794D01*
X816333Y315079D01*
Y320158D01*
X813794Y322697D01*
X808715D01*
X806176Y320158D01*
Y315079D01*
X808715Y312540D01*
X821411D02*
Y322697D01*
X829029D01*
X831568Y320158D01*
Y312540D01*
X839185Y325236D02*
Y322697D01*
X836646D01*
X841725D01*
X839185D01*
Y315079D01*
X841725Y312540D01*
X849342Y322697D02*
Y312540D01*
Y317618D01*
X851881Y320158D01*
X854420Y322697D01*
X856960D01*
X867116Y312540D02*
X872195D01*
X874734Y315079D01*
Y320158D01*
X872195Y322697D01*
X867116D01*
X864577Y320158D01*
Y315079D01*
X867116Y312540D01*
X879812D02*
X884891D01*
X882352D01*
Y327775D01*
X879812D01*
X892508Y312540D02*
X897587D01*
X895047D01*
Y327775D01*
X892508D01*
X912822Y312540D02*
X907743D01*
X905204Y315079D01*
Y320158D01*
X907743Y322697D01*
X912822D01*
X915361Y320158D01*
Y317618D01*
X905204D01*
X920439Y322697D02*
Y312540D01*
Y317618D01*
X922978Y320158D01*
X925518Y322697D01*
X928057D01*
X832540Y36918D02*
Y52153D01*
X840157D01*
X842697Y49614D01*
Y44536D01*
X840157Y41996D01*
X832540D01*
X847775Y47075D02*
Y36918D01*
Y41996D01*
X850314Y44536D01*
X852853Y47075D01*
X855393D01*
X865549D02*
X870628D01*
X873167Y44536D01*
Y36918D01*
X865549D01*
X863010Y39457D01*
X865549Y41996D01*
X873167D01*
X888402Y47075D02*
X880784D01*
X878245Y44536D01*
Y39457D01*
X880784Y36918D01*
X888402D01*
X896020Y49614D02*
Y47075D01*
X893480D01*
X898559D01*
X896020D01*
Y39457D01*
X898559Y36918D01*
X906176D02*
X911255D01*
X908715D01*
Y47075D01*
X906176D01*
X929029D02*
X921411D01*
X918872Y44536D01*
Y39457D01*
X921411Y36918D01*
X929029D01*
X936646Y47075D02*
X941725D01*
X944264Y44536D01*
Y36918D01*
X936646D01*
X934107Y39457D01*
X936646Y41996D01*
X944264D01*
X949342Y36918D02*
X954420D01*
X951881D01*
Y52153D01*
X949342D01*
X842697Y27775D02*
X832540D01*
Y12540D01*
X842697D01*
X832540Y20157D02*
X837618D01*
X847775Y12540D02*
X852853D01*
X850314D01*
Y27775D01*
X847775D01*
X868089Y12540D02*
X863010D01*
X860471Y15079D01*
Y20157D01*
X863010Y22697D01*
X868089D01*
X870628Y20157D01*
Y17618D01*
X860471D01*
X885863Y22697D02*
X878245D01*
X875706Y20157D01*
Y15079D01*
X878245Y12540D01*
X885863D01*
X893480Y25236D02*
Y22697D01*
X890941D01*
X896019D01*
X893480D01*
Y15079D01*
X896019Y12540D01*
X903637Y22697D02*
Y12540D01*
Y17618D01*
X906176Y20157D01*
X908715Y22697D01*
X911255D01*
X921411Y12540D02*
X926490D01*
X929029Y15079D01*
Y20157D01*
X926490Y22697D01*
X921411D01*
X918872Y20157D01*
Y15079D01*
X921411Y12540D01*
X934107D02*
Y22697D01*
X941725D01*
X944264Y20157D01*
Y12540D01*
X949342D02*
X954420D01*
X951881D01*
Y22697D01*
X949342D01*
X972195D02*
X964577D01*
X962038Y20157D01*
Y15079D01*
X964577Y12540D01*
X972195D01*
X977273D02*
X984891D01*
X987430Y15079D01*
X984891Y17618D01*
X979812D01*
X977273Y20157D01*
X979812Y22697D01*
X987430D01*
X808723Y616198D02*
Y603802D01*
X814921D01*
X816987Y605868D01*
Y614132D01*
X814921Y616198D01*
X808723D01*
X821119Y603802D02*
X825251D01*
X823185D01*
Y612066D01*
X821119D01*
X833515Y603802D02*
Y614132D01*
Y610000D01*
X831449D01*
X835581D01*
X833515D01*
Y614132D01*
X835581Y616198D01*
X843845Y603802D02*
Y614132D01*
Y610000D01*
X841779D01*
X845911D01*
X843845D01*
Y614132D01*
X845911Y616198D01*
X858307Y603802D02*
X854175D01*
X852109Y605868D01*
Y610000D01*
X854175Y612066D01*
X858307D01*
X860373Y610000D01*
Y607934D01*
X852109D01*
X864505Y612066D02*
Y603802D01*
Y607934D01*
X866571Y610000D01*
X868637Y612066D01*
X870703D01*
X876901Y603802D02*
Y612066D01*
X883099D01*
X885165Y610000D01*
Y603802D01*
X891363Y614132D02*
Y612066D01*
X889297D01*
X893429D01*
X891363D01*
Y605868D01*
X893429Y603802D01*
X899627D02*
X903759D01*
X901693D01*
Y612066D01*
X899627D01*
X912023D02*
X916155D01*
X918221Y610000D01*
Y603802D01*
X912023D01*
X909957Y605868D01*
X912023Y607934D01*
X918221D01*
X924419Y614132D02*
Y612066D01*
X922353D01*
X926485D01*
X924419D01*
Y605868D01*
X926485Y603802D01*
X934749D02*
X938881D01*
X940947Y605868D01*
Y610000D01*
X938881Y612066D01*
X934749D01*
X932683Y610000D01*
Y605868D01*
X934749Y603802D01*
X945079Y612066D02*
Y603802D01*
Y607934D01*
X947145Y610000D01*
X949211Y612066D01*
X951277D01*
X816614Y558264D02*
X820746D01*
X818680D01*
Y545868D01*
X816614D01*
X820746D01*
X826944D02*
Y554132D01*
X833142D01*
X835208Y552066D01*
Y545868D01*
X841406Y556198D02*
Y554132D01*
X839340D01*
X843472D01*
X841406D01*
Y547934D01*
X843472Y545868D01*
X855868D02*
X851736D01*
X849670Y547934D01*
Y552066D01*
X851736Y554132D01*
X855868D01*
X857934Y552066D01*
Y550000D01*
X849670D01*
X866198Y541736D02*
X868264D01*
X870330Y543802D01*
Y554132D01*
X864132D01*
X862066Y552066D01*
Y547934D01*
X864132Y545868D01*
X870330D01*
X874462Y554132D02*
Y545868D01*
Y550000D01*
X876528Y552066D01*
X878594Y554132D01*
X880660D01*
X888924D02*
X893056D01*
X895122Y552066D01*
Y545868D01*
X888924D01*
X886858Y547934D01*
X888924Y550000D01*
X895122D01*
X899254Y545868D02*
X903386D01*
X901320D01*
Y558264D01*
X899254D01*
X341122Y444246D02*
Y459481D01*
X348740D01*
X351279Y456942D01*
Y451864D01*
X348740Y449324D01*
X341122D01*
X356357Y454403D02*
Y444246D01*
Y449324D01*
X358896Y451864D01*
X361435Y454403D01*
X363975D01*
X374131Y444246D02*
X379210D01*
X381749Y446785D01*
Y451864D01*
X379210Y454403D01*
X374131D01*
X371592Y451864D01*
Y446785D01*
X374131Y444246D01*
X386827Y439168D02*
Y454403D01*
X394445D01*
X396984Y451864D01*
Y446785D01*
X394445Y444246D01*
X386827D01*
X530956Y347617D02*
X536035D01*
X533495D01*
Y332383D01*
X530956D01*
X536035D01*
X553809Y345078D02*
X551270Y347617D01*
X546191D01*
X543652Y345078D01*
Y334922D01*
X546191Y332383D01*
X551270D01*
X553809Y334922D01*
X569044Y332383D02*
X558887D01*
X569044Y342539D01*
Y345078D01*
X566505Y347617D01*
X561426D01*
X558887Y345078D01*
X307304Y572383D02*
Y587617D01*
X314922D01*
X317461Y585078D01*
Y580000D01*
X314922Y577461D01*
X307304D01*
X312383D02*
X317461Y572383D01*
X322539Y585078D02*
X325078Y587617D01*
X330157D01*
X332696Y585078D01*
Y582539D01*
X330157Y580000D01*
X327617D01*
X330157D01*
X332696Y577461D01*
Y574922D01*
X330157Y572383D01*
X325078D01*
X322539Y574922D01*
X942540Y567775D02*
Y557618D01*
X947618Y552540D01*
X952697Y557618D01*
Y567775D01*
X965393Y552540D02*
X960314D01*
X957775Y555079D01*
Y560158D01*
X960314Y562697D01*
X965393D01*
X967932Y560158D01*
Y557618D01*
X957775D01*
X980628Y552540D02*
X975549D01*
X973010Y555079D01*
Y560158D01*
X975549Y562697D01*
X980628D01*
X983167Y560158D01*
Y557618D01*
X973010D01*
X462697Y45236D02*
X460158Y47775D01*
X455079D01*
X452540Y45236D01*
Y35079D01*
X455079Y32540D01*
X460158D01*
X462697Y35079D01*
Y40157D01*
X457618D01*
X467775Y32540D02*
Y47775D01*
X477932Y32540D01*
Y47775D01*
X483010D02*
Y32540D01*
X490628D01*
X493167Y35079D01*
Y45236D01*
X490628Y47775D01*
X483010D01*
X52697Y340314D02*
X42540D01*
Y332697D01*
X47618D01*
X42540D01*
Y325079D01*
X65393D02*
X60314D01*
X57775Y327618D01*
Y332697D01*
X60314Y335236D01*
X65393D01*
X67932Y332697D01*
Y330158D01*
X57775D01*
X80628Y325079D02*
X75549D01*
X73010Y327618D01*
Y332697D01*
X75549Y335236D01*
X80628D01*
X83167Y332697D01*
Y330158D01*
X73010D01*
X98402Y340314D02*
Y325079D01*
X90784D01*
X88245Y327618D01*
Y332697D01*
X90784Y335236D01*
X98402D01*
X103480Y340314D02*
Y325079D01*
X111098D01*
X113637Y327618D01*
Y330158D01*
Y332697D01*
X111098Y335236D01*
X103480D01*
X121255D02*
X126333D01*
X128872Y332697D01*
Y325079D01*
X121255D01*
X118715Y327618D01*
X121255Y330158D01*
X128872D01*
X144107Y335236D02*
X136490D01*
X133950Y332697D01*
Y327618D01*
X136490Y325079D01*
X144107D01*
X149185D02*
Y340314D01*
Y330158D02*
X156803Y335236D01*
X149185Y330158D02*
X156803Y325079D01*
X164421Y322540D02*
X174577D01*
X187273Y340314D02*
X182195D01*
X179656Y337775D01*
Y327618D01*
X182195Y325079D01*
X187273D01*
X189812Y327618D01*
Y337775D01*
X187273Y340314D01*
X194891Y335236D02*
Y327618D01*
X197430Y325079D01*
X205047D01*
Y335236D01*
X212665Y337775D02*
Y335236D01*
X210126D01*
X215204D01*
X212665D01*
Y327618D01*
X215204Y325079D01*
X52540Y145079D02*
Y160314D01*
X60157D01*
X62697Y157775D01*
Y152697D01*
X60157Y150157D01*
X52540D01*
X67775Y160314D02*
X72853D01*
X70314D01*
Y145079D01*
X67775D01*
X72853D01*
X80471Y160314D02*
Y145079D01*
X88089D01*
X90628Y147618D01*
Y157775D01*
X88089Y160314D01*
X80471D01*
X95706Y142540D02*
X105863D01*
X118559Y160314D02*
X113480D01*
X110941Y157775D01*
Y147618D01*
X113480Y145079D01*
X118559D01*
X121098Y147618D01*
Y157775D01*
X118559Y160314D01*
X126176Y155236D02*
Y147618D01*
X128715Y145079D01*
X136333D01*
Y155236D01*
X143950Y157775D02*
Y155236D01*
X141411D01*
X146490D01*
X143950D01*
Y147618D01*
X146490Y145079D01*
X72540Y572853D02*
X77618D01*
X75079D01*
Y557618D01*
X72540D01*
X77618D01*
X85236D02*
Y567775D01*
X92853D01*
X95393Y565236D01*
Y557618D01*
X100471Y552540D02*
Y567775D01*
X108089D01*
X110628Y565236D01*
Y560158D01*
X108089Y557618D01*
X100471D01*
X115706Y567775D02*
Y560158D01*
X118245Y557618D01*
X125863D01*
Y567775D01*
X133480Y570314D02*
Y567775D01*
X130941D01*
X136019D01*
X133480D01*
Y560158D01*
X136019Y557618D01*
X42540Y487775D02*
Y477618D01*
X47618Y472540D01*
X52697Y477618D01*
Y487775D01*
X67932Y482697D02*
X60314D01*
X57775Y480158D01*
Y475079D01*
X60314Y472540D01*
X67932D01*
X83167Y482697D02*
X75549D01*
X73010Y480158D01*
Y475079D01*
X75549Y472540D01*
X83167D01*
X307304Y722383D02*
Y737617D01*
X314922D01*
X317461Y735078D01*
Y730000D01*
X314922Y727461D01*
X307304D01*
X312383D02*
X317461Y722383D01*
X332696D02*
X322539D01*
X332696Y732539D01*
Y735078D01*
X330157Y737617D01*
X325078D01*
X322539Y735078D01*
X307304Y642383D02*
Y657617D01*
X314922D01*
X317461Y655078D01*
Y650000D01*
X314922Y647461D01*
X307304D01*
X312383D02*
X317461Y642383D01*
X330157D02*
Y657617D01*
X322539Y650000D01*
X332696D01*
X309843Y682383D02*
Y697617D01*
X317461D01*
X320000Y695078D01*
Y690000D01*
X317461Y687461D01*
X309843D01*
X314922D02*
X320000Y682383D01*
X325078D02*
X330157D01*
X327618D01*
Y697617D01*
X325078Y695078D01*
X640000Y765078D02*
X637461Y767617D01*
X632383D01*
X629843Y765078D01*
Y754922D01*
X632383Y752383D01*
X637461D01*
X640000Y754922D01*
X645078Y752383D02*
X650157D01*
X647618D01*
Y767617D01*
X645078Y765078D01*
X677461Y605078D02*
X674922Y607617D01*
X669843D01*
X667304Y605078D01*
Y594922D01*
X669843Y592383D01*
X674922D01*
X677461Y594922D01*
X692696Y592383D02*
X682539D01*
X692696Y602539D01*
Y605078D01*
X690157Y607617D01*
X685078D01*
X682539Y605078D01*
X297304Y212382D02*
Y227617D01*
X304922D01*
X307461Y225078D01*
Y220000D01*
X304922Y217461D01*
X297304D01*
X302383D02*
X307461Y212382D01*
X312539Y225078D02*
X315078Y227617D01*
X320157D01*
X322696Y225078D01*
Y222539D01*
X320157Y220000D01*
X322696Y217461D01*
Y214922D01*
X320157Y212382D01*
X315078D01*
X312539Y214922D01*
Y217461D01*
X315078Y220000D01*
X312539Y222539D01*
Y225078D01*
X315078Y220000D02*
X320157D01*
X297304Y262383D02*
Y277617D01*
X304922D01*
X307461Y275078D01*
Y270000D01*
X304922Y267461D01*
X297304D01*
X302383D02*
X307461Y262383D01*
X312539Y264922D02*
X315078Y262383D01*
X320157D01*
X322696Y264922D01*
Y275078D01*
X320157Y277617D01*
X315078D01*
X312539Y275078D01*
Y272539D01*
X315078Y270000D01*
X322696D01*
X629687Y197617D02*
Y187461D01*
X634765Y182383D01*
X639843Y187461D01*
Y197617D01*
X644922Y182383D02*
Y197617D01*
X652539D01*
X655078Y195078D01*
Y190000D01*
X652539Y187461D01*
X644922D01*
X650000D02*
X655078Y182383D01*
X667774D02*
Y197617D01*
X660157Y190000D01*
X670313D01*
X957304Y497617D02*
Y482383D01*
Y490000D01*
X967461D01*
Y497617D01*
Y482383D01*
X982696Y497617D02*
X977617Y495078D01*
X972539Y490000D01*
Y484922D01*
X975078Y482383D01*
X980157D01*
X982696Y484922D01*
Y487461D01*
X980157Y490000D01*
X972539D01*
X37304Y277618D02*
Y262383D01*
Y270000D01*
X47461D01*
Y277618D01*
Y262383D01*
X52539Y275078D02*
X55078Y277618D01*
X60157D01*
X62696Y275078D01*
Y272539D01*
X60157Y270000D01*
X57618D01*
X60157D01*
X62696Y267461D01*
Y264922D01*
X60157Y262383D01*
X55078D01*
X52539Y264922D01*
X362226Y487617D02*
X372383D01*
X367304D01*
Y472383D01*
X377461D02*
Y487617D01*
X385078D01*
X387618Y485078D01*
Y480000D01*
X385078Y477461D01*
X377461D01*
X392696Y472383D02*
X397774D01*
X395235D01*
Y487617D01*
X392696Y485078D01*
X458904Y412383D02*
Y427617D01*
X466522D01*
X469061Y425078D01*
Y420000D01*
X466522Y417461D01*
X458904D01*
X463983D02*
X469061Y412383D01*
X474139Y427617D02*
X484296D01*
Y425078D01*
X474139Y414922D01*
Y412383D01*
X457304Y362383D02*
Y377617D01*
X464922D01*
X467461Y375078D01*
Y370000D01*
X464922Y367461D01*
X457304D01*
X462383D02*
X467461Y362383D01*
X482696Y377617D02*
X477617Y375078D01*
X472539Y370000D01*
Y364922D01*
X475078Y362383D01*
X480157D01*
X482696Y364922D01*
Y367461D01*
X480157Y370000D01*
X472539D01*
X650956Y462383D02*
Y477617D01*
X658574D01*
X661113Y475078D01*
Y470000D01*
X658574Y467461D01*
X650956D01*
X656034D02*
X661113Y462383D01*
X666191D02*
X671270D01*
X668730D01*
Y477617D01*
X666191Y475078D01*
X678887D02*
X681426Y477617D01*
X686505D01*
X689044Y475078D01*
Y464922D01*
X686505Y462383D01*
X681426D01*
X678887Y464922D01*
Y475078D01*
X49843Y97618D02*
Y82382D01*
Y90000D01*
X60000D01*
Y97618D01*
Y82382D01*
X65078D02*
X70157D01*
X67618D01*
Y97618D01*
X65078Y95078D01*
X307304Y602383D02*
Y617617D01*
X314922D01*
X317461Y615078D01*
Y610000D01*
X314922Y607461D01*
X307304D01*
X312383D02*
X317461Y602383D01*
X332696Y617617D02*
X322539D01*
Y610000D01*
X327617Y612539D01*
X330157D01*
X332696Y610000D01*
Y604922D01*
X330157Y602383D01*
X325078D01*
X322539Y604922D01*
X740918Y765551D02*
Y755394D01*
X745996Y750316D01*
X751075Y755394D01*
Y765551D01*
X756153Y750316D02*
Y765551D01*
X763771D01*
X766310Y763012D01*
Y757934D01*
X763771Y755394D01*
X756153D01*
X761231D02*
X766310Y750316D01*
X771388D02*
X776467D01*
X773927D01*
Y765551D01*
X771388Y763012D01*
X160020Y731007D02*
Y720850D01*
X165098Y715772D01*
X170177Y720850D01*
Y731007D01*
X175255Y715772D02*
Y731007D01*
X182873D01*
X185412Y728468D01*
Y723390D01*
X182873Y720850D01*
X175255D01*
X180333D02*
X185412Y715772D01*
X200647D02*
X190490D01*
X200647Y725929D01*
Y728468D01*
X198108Y731007D01*
X193029D01*
X190490Y728468D01*
X512826Y754121D02*
X517904D01*
X515365D01*
Y738886D01*
X512826D01*
X517904D01*
X535679Y751582D02*
X533139Y754121D01*
X528061D01*
X525522Y751582D01*
Y741425D01*
X528061Y738886D01*
X533139D01*
X535679Y741425D01*
X540757Y738886D02*
X545835D01*
X543296D01*
Y754121D01*
X540757Y751582D01*
X874268Y765297D02*
Y755140D01*
X879346Y750062D01*
X884425Y755140D01*
Y765297D01*
X889503Y750062D02*
Y765297D01*
X897121D01*
X899660Y762758D01*
Y757680D01*
X897121Y755140D01*
X889503D01*
X894581D02*
X899660Y750062D01*
X904738Y762758D02*
X907277Y765297D01*
X912356D01*
X914895Y762758D01*
Y760219D01*
X912356Y757680D01*
X909817D01*
X912356D01*
X914895Y755140D01*
Y752601D01*
X912356Y750062D01*
X907277D01*
X904738Y752601D01*
X518160Y74163D02*
Y58928D01*
Y66546D01*
X528317D01*
Y74163D01*
Y58928D01*
X543552D02*
X533395D01*
X543552Y69085D01*
Y71624D01*
X541013Y74163D01*
X535934D01*
X533395Y71624D01*
X41148Y544317D02*
Y529082D01*
Y536699D01*
X51305D01*
Y544317D01*
Y529082D01*
X66540Y544317D02*
X56383D01*
Y536699D01*
X61461Y539239D01*
X64001D01*
X66540Y536699D01*
Y531621D01*
X64001Y529082D01*
X58922D01*
X56383Y531621D01*
X41148Y614167D02*
Y598932D01*
Y606549D01*
X51305D01*
Y614167D01*
Y598932D01*
X64001D02*
Y614167D01*
X56383Y606549D01*
X66540D01*
D11*
X549200Y206000D02*
G03*
X549200Y207000I0J500D01*
G01*
D02*
G03*
X549200Y206000I0J-500D01*
G01*
X744000Y659200D02*
G03*
X743000Y659200I-500J0D01*
G01*
D02*
G03*
X744000Y659200I500J0D01*
G01*
X163200Y624600D02*
G03*
X162200Y624600I-500J0D01*
G01*
D02*
G03*
X163200Y624600I500J0D01*
G01*
X904600Y736800D02*
G03*
X904600Y737800I0J500D01*
G01*
D02*
G03*
X904600Y736800I0J-500D01*
G01*
D12*
X369680Y550000D02*
X379840D01*
X298560D02*
X308720D01*
Y539840D02*
X369680D01*
Y560160D01*
X308720D02*
X369680D01*
X308720Y539840D02*
Y560160D01*
X441280Y730000D02*
X451440D01*
X370160D02*
X380320D01*
Y719840D02*
X441280D01*
Y740160D01*
X380320D02*
X441280D01*
X380320Y719840D02*
Y740160D01*
X439680Y650000D02*
X449840D01*
X368560D02*
X378720D01*
Y639840D02*
X439680D01*
Y660160D01*
X378720D02*
X439680D01*
X378720Y639840D02*
Y660160D01*
X370160Y690000D02*
X380320D01*
X441280D02*
X451440D01*
X380320Y700160D02*
X441280D01*
X380320Y679840D02*
Y700160D01*
Y679840D02*
X441280D01*
Y700160D01*
X657300Y757310D02*
X682700D01*
X670000Y744610D02*
Y770010D01*
X641900Y652700D02*
X692700D01*
X641900Y627300D02*
Y652700D01*
Y627300D02*
X692700D01*
Y652700D01*
X358560Y220000D02*
X368720D01*
X429680D02*
X439840D01*
X368720Y230160D02*
X429680D01*
X368720Y209840D02*
Y230160D01*
Y209840D02*
X429680D01*
Y230160D01*
X429680Y270000D02*
X439840D01*
X358560D02*
X368720D01*
Y259840D02*
X429680D01*
Y280160D01*
X368720D02*
X429680D01*
X368720Y259840D02*
Y280160D01*
X520160Y420000D02*
X530320D01*
X591280D02*
X601440D01*
X530320Y430160D02*
X591280D01*
X530320Y409840D02*
Y430160D01*
Y409840D02*
X591280D01*
Y430160D01*
X520160Y370000D02*
X530320D01*
X591280D02*
X601440D01*
X530320Y380160D02*
X591280D01*
X530320Y359840D02*
Y380160D01*
Y359840D02*
X591280D01*
Y380160D01*
X520160Y470000D02*
X530320D01*
X591280D02*
X601440D01*
X530320Y480160D02*
X591280D01*
X530320Y459840D02*
Y480160D01*
Y459840D02*
X591280D01*
Y480160D01*
X441280Y610000D02*
X451440D01*
X370160D02*
X380320D01*
Y599840D02*
X441280D01*
Y620160D01*
X380320D02*
X441280D01*
X380320Y599840D02*
Y620160D01*
D13*
X622250Y105800D02*
Y201100D01*
X526950Y105800D02*
X622250D01*
X526950D02*
Y201100D01*
X622250D01*
X537000Y219200D02*
X615350D01*
X537000Y320800D02*
X603000D01*
X748900Y732250D02*
X844200D01*
Y636950D02*
Y732250D01*
X748900Y636950D02*
X844200D01*
X748900D02*
Y732250D01*
X168100Y697650D02*
X263400D01*
Y602350D02*
Y697650D01*
X168100Y602350D02*
X263400D01*
X168100D02*
Y697650D01*
X514650Y728450D02*
X593000D01*
X527000Y531550D02*
X593000D01*
X977650Y636600D02*
Y731900D01*
X882350Y636600D02*
X977650D01*
X882350D02*
Y731900D01*
X977650D01*
M02*
