G04*
G04 #@! TF.GenerationSoftware,Altium Limited,Altium Designer,24.4.1 (13)*
G04*
G04 Layer_Physical_Order=1*
G04 Layer_Color=255*
%FSLAX44Y44*%
%MOMM*%
G71*
G04*
G04 #@! TF.SameCoordinates,D33A3FA2-88C1-4BC0-A94D-04A4EBB6AA15*
G04*
G04*
G04 #@! TF.FilePolarity,Positive*
G04*
G01*
G75*
%ADD10C,0.2540*%
%ADD23C,0.3810*%
%ADD24C,2.0000*%
%ADD25C,1.7000*%
%ADD26C,1.2170*%
%ADD27R,1.2170X1.2170*%
%ADD28O,2.0000X1.6000*%
%ADD29R,1.1300X1.1300*%
%ADD30C,1.1300*%
%ADD31R,1.2170X1.2170*%
%ADD32O,1.6000X2.0000*%
D10*
X529305Y160695D02*
Y189305D01*
Y160695D02*
X560800Y129200D01*
X529305Y189305D02*
X571900Y231900D01*
X560800Y129200D02*
X574600D01*
X571900Y231900D02*
X609700D01*
X60000Y120000D02*
X565400D01*
X574600Y129200D01*
D23*
X438000Y524600D02*
X440000D01*
X419534Y506134D02*
X438000Y524600D01*
X416134Y506134D02*
X419534D01*
X400000Y490000D02*
X416134Y506134D01*
X400000Y470000D02*
Y490000D01*
X350000Y420000D02*
X400000Y470000D01*
X630000Y350000D02*
Y430000D01*
X580000Y480000D02*
X630000Y430000D01*
X599700Y579200D02*
X610500Y590000D01*
X900000D01*
X960000D02*
Y677768D01*
X957768Y680000D02*
X960000Y677768D01*
X890000Y680000D02*
X957768D01*
X850000Y640000D02*
X890000Y680000D01*
X740000Y642232D02*
X742232Y640000D01*
X850000D01*
X740000Y642232D02*
Y650000D01*
X730000Y660000D02*
X740000Y650000D01*
X640000Y660000D02*
X730000D01*
X595424Y640000D02*
X600728Y645305D01*
X625305D01*
X580000Y642232D02*
Y667768D01*
Y642232D02*
X582232Y640000D01*
X595424D01*
X625305Y645305D02*
X640000Y660000D01*
X580000Y667768D02*
X582232Y670000D01*
X588900D01*
X599700Y680800D01*
X610915Y720000D02*
X615515Y715400D01*
X560000Y720000D02*
X610915D01*
X615515Y715400D02*
X670000D01*
X609700Y257300D02*
X611605D01*
X615677Y253228D02*
X624540D01*
X626772Y226772D02*
Y250996D01*
X600000Y200000D02*
X626772Y226772D01*
X611605Y257300D02*
X615677Y253228D01*
X624540D02*
X626772Y250996D01*
X569200Y200000D02*
X600000D01*
X549200Y180000D02*
X569200Y200000D01*
X609700Y308100D02*
X609726Y308126D01*
X650000Y340000D02*
Y400000D01*
X609726Y308126D02*
X618126D01*
X650000Y340000D01*
X609700Y308100D02*
Y329700D01*
X60041Y500973D02*
X317768D01*
X320000Y498741D01*
Y360000D02*
Y498741D01*
Y360000D02*
X383650Y296350D01*
X51013Y510000D02*
X60041Y500973D01*
X50000Y510000D02*
X51013D01*
X383650Y296350D02*
X541418D01*
X550000Y287768D01*
X50000Y510000D02*
X390000D01*
X550000Y251600D02*
Y287768D01*
X530300Y231900D02*
X550000Y251600D01*
X517600Y270000D02*
X530300Y282700D01*
X480000Y250000D02*
X500000Y270000D01*
X517600D01*
X523000Y290000D02*
X530055Y282945D01*
X60000Y290000D02*
X523000D01*
X20000Y330000D02*
X60000Y290000D01*
X507300Y257300D02*
X530300D01*
X490000Y240000D02*
X507300Y257300D01*
X470000Y240000D02*
X490000D01*
X450000Y220000D02*
X470000Y240000D01*
X368400Y250000D02*
X480000D01*
X348400Y270000D02*
X368400Y250000D01*
X348400Y270000D02*
X348400Y270000D01*
Y220000D02*
Y270000D01*
X590000Y251600D02*
X609700Y231900D01*
X561900Y288100D02*
X590000Y260000D01*
Y251600D02*
Y260000D01*
X561900Y288100D02*
Y305868D01*
X559668Y308100D02*
X561900Y305868D01*
X530300Y308100D02*
X559668D01*
X590000Y279027D02*
Y340000D01*
Y279027D02*
X609700Y259327D01*
Y257300D02*
Y259327D01*
X560000Y370000D02*
X590000Y340000D01*
X510000Y370000D02*
X560000D01*
X609700Y329700D02*
X630000Y350000D01*
X650000Y400000D02*
X730000Y480000D01*
X920000D01*
X970000Y530000D01*
X590000Y630000D02*
X599700D01*
X580000Y480000D02*
Y620000D01*
X590000Y630000D01*
X570000Y432232D02*
X582232Y420000D01*
X570000Y670000D02*
X580800Y680800D01*
X599700D01*
X582232Y420000D02*
X611600D01*
X570000Y432232D02*
Y670000D01*
X70000Y750000D02*
X340000D01*
X20000Y700000D02*
X70000Y750000D01*
X20000Y330000D02*
Y700000D01*
X340000Y750000D02*
X360000Y730000D01*
X420000Y540000D02*
Y610000D01*
X390000Y510000D02*
X420000Y540000D01*
Y610000D02*
X440000Y630000D01*
X392232Y650000D02*
X460103D01*
X390000Y647768D02*
X392232Y650000D01*
X390000Y550000D02*
Y647768D01*
X440000Y630000D02*
X520300D01*
X514323Y650000D02*
X519723Y655400D01*
X470103Y660000D02*
X490000D01*
X500000Y650000D01*
X519723Y655400D02*
X520300D01*
X500000Y650000D02*
X514323D01*
X460103D02*
X470103Y660000D01*
X360000Y610000D02*
X377768D01*
X360000Y690000D02*
X377768D01*
Y610000D02*
X380000Y612232D01*
Y687768D01*
X377768Y690000D02*
X380000Y687768D01*
X580000Y370000D02*
X611600D01*
X560000Y390000D02*
Y540000D01*
Y390000D02*
X580000Y370000D01*
X546200Y553800D02*
X560000Y540000D01*
X520300Y553800D02*
X546200D01*
X611600Y470000D02*
X630000D01*
X640000Y480000D01*
Y540000D01*
X626200Y553800D02*
X640000Y540000D01*
X599700Y553800D02*
X626200D01*
X510000Y370000D02*
Y420000D01*
Y470000D01*
X615100Y620000D02*
X677768D01*
X599700Y604600D02*
X615100Y620000D01*
X677768D02*
X680000Y622232D01*
Y640000D01*
Y740000D02*
X890000D01*
X670000Y715400D02*
Y730000D01*
X680000Y740000D01*
X904600Y710800D02*
Y725400D01*
X890000Y740000D02*
X904600Y725400D01*
X730000Y620000D02*
X920000D01*
X928400Y628400D01*
Y658400D01*
X930000Y660000D01*
X710000Y640000D02*
X730000Y620000D01*
X680000Y640000D02*
X710000D01*
X546200Y706200D02*
X560000Y720000D01*
X520300Y706200D02*
X546200D01*
X362232Y710000D02*
X420000D01*
X360000Y690000D02*
Y707768D01*
X362232Y710000D01*
X420000D02*
X430000Y720000D01*
Y747768D02*
X432232Y750000D01*
X430000Y720000D02*
Y747768D01*
X432232Y750000D02*
X500000D01*
X520000Y730000D01*
Y706500D02*
Y730000D01*
Y706500D02*
X520300Y706200D01*
X670000Y690000D02*
X760000D01*
X770000Y680000D01*
Y659200D02*
Y680000D01*
X670000Y680000D02*
Y690000D01*
X660000Y670000D02*
X670000Y680000D01*
X614300Y670000D02*
X660000D01*
X599700Y655400D02*
X614300Y670000D01*
X599700Y680800D02*
Y706200D01*
Y553800D02*
Y579200D01*
X440000Y524600D02*
X444927D01*
X450327Y530000D01*
X477768D01*
X480000Y532232D01*
Y550000D01*
X483800Y553800D02*
X520300D01*
X480000Y550000D02*
X483800Y553800D01*
X483032Y579200D02*
X520300D01*
X480000Y582232D02*
Y591600D01*
Y582232D02*
X483032Y579200D01*
X461600Y610000D02*
X480000Y591600D01*
X440000Y550000D02*
Y588400D01*
X461600Y610000D01*
X490000Y680000D02*
X519500D01*
X520300Y680800D01*
X461600Y690000D02*
X480000D01*
X490000Y680000D01*
X461600Y690000D02*
Y730000D01*
X260000Y550000D02*
X288400D01*
X240000Y570000D02*
X260000Y550000D01*
X240000Y570000D02*
Y650000D01*
X189200Y624600D02*
X190000Y623800D01*
Y590000D02*
Y623800D01*
X180000Y580000D02*
X190000Y590000D01*
X50000Y580000D02*
X180000D01*
D24*
X960000Y590000D02*
D03*
X900000D02*
D03*
X350000Y420000D02*
D03*
X970000Y530000D02*
D03*
X50000Y300000D02*
D03*
X60000Y120000D02*
D03*
X50000Y510000D02*
D03*
Y580000D02*
D03*
D25*
X390000Y550000D02*
D03*
X288400D02*
D03*
X461600Y730000D02*
D03*
X360000D02*
D03*
X460000Y650000D02*
D03*
X358400D02*
D03*
X360000Y690000D02*
D03*
X461600D02*
D03*
X670000Y715400D02*
D03*
Y690000D02*
D03*
X654600Y640000D02*
D03*
X680000D02*
D03*
X348400Y220000D02*
D03*
X450000D02*
D03*
X450000Y270000D02*
D03*
X348400D02*
D03*
X510000Y420000D02*
D03*
X611600D02*
D03*
X510000Y370000D02*
D03*
X611600D02*
D03*
X510000Y470000D02*
D03*
X611600D02*
D03*
X461600Y610000D02*
D03*
X360000D02*
D03*
D26*
X600000Y180000D02*
D03*
X574600Y129200D02*
D03*
X770000Y710000D02*
D03*
X820800Y684600D02*
D03*
X189200Y675400D02*
D03*
X240000Y650000D02*
D03*
X955400Y710800D02*
D03*
X930000Y660000D02*
D03*
D27*
X549200Y180000D02*
D03*
X904600Y710800D02*
D03*
D28*
X440000Y550000D02*
D03*
Y524600D02*
D03*
Y499200D02*
D03*
D29*
X609700Y231900D02*
D03*
X520300Y706200D02*
D03*
D30*
X609700Y257300D02*
D03*
Y282700D02*
D03*
Y308100D02*
D03*
X530300D02*
D03*
Y282700D02*
D03*
Y257300D02*
D03*
Y231900D02*
D03*
X520300Y680800D02*
D03*
Y655400D02*
D03*
Y630000D02*
D03*
Y604600D02*
D03*
Y579200D02*
D03*
Y553800D02*
D03*
X599700D02*
D03*
Y579200D02*
D03*
Y604600D02*
D03*
Y630000D02*
D03*
Y655400D02*
D03*
Y680800D02*
D03*
Y706200D02*
D03*
D31*
X770000Y659200D02*
D03*
X189200Y624600D02*
D03*
D32*
X600800Y40000D02*
D03*
X575400D02*
D03*
X550000D02*
D03*
X524600D02*
D03*
M02*
