G04*
G04 #@! TF.GenerationSoftware,Altium Limited,Altium Designer,24.4.1 (13)*
G04*
G04 Layer_Color=255*
%FSLAX44Y44*%
%MOMM*%
G71*
G04*
G04 #@! TF.SameCoordinates,D33A3FA2-88C1-4BC0-A94D-04A4EBB6AA15*
G04*
G04*
G04 #@! TF.FilePolarity,Positive*
G04*
G01*
G75*
%ADD24C,2.0000*%
%ADD25C,1.7000*%
%ADD26C,1.2170*%
%ADD27R,1.2170X1.2170*%
%ADD28O,2.0000X1.6000*%
%ADD29R,1.1300X1.1300*%
%ADD30C,1.1300*%
%ADD31R,1.2170X1.2170*%
%ADD32O,1.6000X2.0000*%
D24*
X960000Y590000D02*
D03*
X900000D02*
D03*
X350000Y420000D02*
D03*
X970000Y530000D02*
D03*
X50000Y300000D02*
D03*
X60000Y120000D02*
D03*
X50000Y510000D02*
D03*
Y580000D02*
D03*
D25*
X390000Y550000D02*
D03*
X288400D02*
D03*
X461600Y730000D02*
D03*
X360000D02*
D03*
X460000Y650000D02*
D03*
X358400D02*
D03*
X360000Y690000D02*
D03*
X461600D02*
D03*
X670000Y715400D02*
D03*
Y690000D02*
D03*
X654600Y640000D02*
D03*
X680000D02*
D03*
X348400Y220000D02*
D03*
X450000D02*
D03*
X450000Y270000D02*
D03*
X348400D02*
D03*
X510000Y420000D02*
D03*
X611600D02*
D03*
X510000Y370000D02*
D03*
X611600D02*
D03*
X510000Y470000D02*
D03*
X611600D02*
D03*
X461600Y610000D02*
D03*
X360000D02*
D03*
D26*
X600000Y180000D02*
D03*
X574600Y129200D02*
D03*
X770000Y710000D02*
D03*
X820800Y684600D02*
D03*
X189200Y675400D02*
D03*
X240000Y650000D02*
D03*
X955400Y710800D02*
D03*
X930000Y660000D02*
D03*
D27*
X549200Y180000D02*
D03*
X904600Y710800D02*
D03*
D28*
X440000Y550000D02*
D03*
Y524600D02*
D03*
Y499200D02*
D03*
D29*
X609700Y231900D02*
D03*
X520300Y706200D02*
D03*
D30*
X609700Y257300D02*
D03*
Y282700D02*
D03*
Y308100D02*
D03*
X530300D02*
D03*
Y282700D02*
D03*
Y257300D02*
D03*
Y231900D02*
D03*
X520300Y680800D02*
D03*
Y655400D02*
D03*
Y630000D02*
D03*
Y604600D02*
D03*
Y579200D02*
D03*
Y553800D02*
D03*
X599700D02*
D03*
Y579200D02*
D03*
Y604600D02*
D03*
Y630000D02*
D03*
Y655400D02*
D03*
Y680800D02*
D03*
Y706200D02*
D03*
D31*
X770000Y659200D02*
D03*
X189200Y624600D02*
D03*
D32*
X600800Y40000D02*
D03*
X575400D02*
D03*
X550000D02*
D03*
X524600D02*
D03*
M02*
