M48
;Layer_Color=9474304
;FILE_FORMAT=4:4
METRIC,LZ
;TYPE=PLATED
T01F00S00C0.7100
T02F00S00C0.7300
T03F00S00C0.8000
T04F00S00C0.9000
T05F00S00C1.0000
%
T01
X005746Y001292
X006Y0018
X005492
X0024Y0065
X001892Y006754
Y006246
X0077Y006592
Y0071
X008208Y006846
X009046Y007108
X0093Y0066
X009554Y007108
T02
X006097Y002319
Y002573
Y002827
Y003081
X005303
Y002827
Y002573
Y002319
X005203Y005538
Y005792
Y006046
Y0063
Y006554
Y006808
Y007062
X005997
Y006808
Y006554
Y0063
Y006046
Y005792
Y005538
T03
X006116Y0037
Y0042
Y0047
X0051
Y0042
Y0037
X0045Y0027
X0045Y0022
X003484
X003484Y0027
X0039Y0055
X0036Y0061
X003584Y0065
X0036Y0069
Y0073
X004616
Y0069
X0046Y0065
X004616Y0061
X002884Y0055
T04
X006546Y0064
X0068
X0067Y0069
Y007154
T05
X0006Y0012
X005246Y0004
X0055
X005754
X006008
X0097Y0053
X0044Y005246
Y004992
X0035Y0042
X0005Y0051
Y003
Y0058
X0044Y0055
X009Y0059
X0096
M30
